<?xml version="1.0" encoding="utf-8"?>
<!-- Generator: Adobe Illustrator 23.0.3, SVG Export Plug-In . SVG Version: 6.00 Build 0)  -->
<svg version="1.1" id="Layer_1" xmlns="http://www.w3.org/2000/svg" xmlns:xlink="http://www.w3.org/1999/xlink" x="0px" y="0px"
	 viewBox="0 0 512 512" style="enable-background:new 0 0 512 512;" xml:space="preserve">
<style type="text/css">
	.st0{fill:#2B2C2B;}
	.st1{fill:#00709F;}
	.st2{fill:#008DC2;}
	.st3{fill:none;stroke:#ED1C24;stroke-width:0;stroke-linecap:round;stroke-linejoin:round;}
	.st4{fill:none;}
	.st5{fill:#FFFFFF;}
	.st6{fill:#9F9F9F;}
	.st7{fill:#00719F;}
</style>
<g>
	<g>
		<path class="st0" d="M107.6,474.4h12.5v1.8h-14.7v-25.3h2.2V474.4z"/>
		<path class="st0" d="M144.5,465c0,2.3-0.4,4.4-1.2,6.1c-0.8,1.8-2,3.1-3.5,4.1c-1.5,1-3.2,1.4-5.2,1.4c-3,0-5.3-1.1-7.2-3.2
			c-1.8-2.1-2.7-5-2.7-8.6v-2.6c0-2.3,0.4-4.4,1.2-6.1s2-3.1,3.5-4.1s3.2-1.4,5.2-1.4c1.9,0,3.7,0.5,5.2,1.4c1.5,0.9,2.6,2.3,3.5,4
			c0.8,1.7,1.2,3.7,1.3,6V465z M142.3,462.2c0-3-0.7-5.4-2.1-7.2c-1.4-1.7-3.3-2.6-5.7-2.6c-2.4,0-4.2,0.9-5.6,2.6
			c-1.4,1.7-2.1,4.2-2.1,7.3v2.6c0,3,0.7,5.4,2.1,7.1c1.4,1.8,3.3,2.6,5.7,2.6c2.4,0,4.3-0.9,5.7-2.6c1.4-1.7,2-4.1,2-7.2V462.2z"/>
		<path class="st0" d="M170.8,473.2c-0.7,1.1-1.9,1.9-3.5,2.5c-1.6,0.6-3.4,0.9-5.3,0.9c-2,0-3.7-0.5-5.3-1.4c-1.5-1-2.7-2.3-3.6-4
			c-0.8-1.7-1.3-3.7-1.3-6V462c0-3.5,0.9-6.3,2.7-8.3s4.2-3.1,7.2-3.1c2.6,0,4.7,0.7,6.3,2c1.6,1.3,2.5,3.2,2.8,5.5h-2.1
			c-0.3-1.9-1.1-3.3-2.3-4.2c-1.2-1-2.8-1.4-4.7-1.4c-2.4,0-4.2,0.8-5.6,2.5c-1.4,1.7-2.1,4.1-2.1,7.1v3c0,1.9,0.3,3.6,1,5.1
			c0.7,1.5,1.6,2.6,2.8,3.4c1.2,0.8,2.6,1.2,4.2,1.2c1.8,0,3.4-0.3,4.8-0.9c0.9-0.4,1.5-0.8,1.9-1.3V466h-6.8v-1.8h8.9V473.2z"/>
		<path class="st0" d="M182.2,476.3H180v-25.3h2.1V476.3z"/>
		<path class="st0" d="M210.6,476.3h-2.1l-14.6-21.7v21.7h-2.2v-25.3h2.2l14.6,21.7v-21.7h2.1V476.3z"/>
		<path class="st0" d="M245.4,470c0-1.4-0.5-2.5-1.5-3.3c-1-0.8-2.8-1.6-5.4-2.3c-2.6-0.7-4.5-1.5-5.7-2.4c-1.7-1.2-2.6-2.8-2.6-4.8
			c0-1.9,0.8-3.5,2.4-4.7c1.6-1.2,3.6-1.8,6.1-1.8c1.7,0,3.2,0.3,4.5,1c1.3,0.6,2.4,1.6,3.1,2.7s1.1,2.5,1.1,3.9h-2.2
			c0-1.7-0.6-3.1-1.8-4.2c-1.2-1.1-2.8-1.6-4.8-1.6c-1.9,0-3.5,0.4-4.6,1.3c-1.1,0.9-1.7,2-1.7,3.4c0,1.3,0.5,2.3,1.5,3.2
			c1,0.8,2.7,1.5,5,2.2c2.3,0.6,4,1.3,5.2,1.9c1.2,0.7,2.1,1.5,2.6,2.4c0.6,0.9,0.9,2,0.9,3.3c0,2-0.8,3.6-2.4,4.8
			c-1.6,1.2-3.7,1.8-6.3,1.8c-1.8,0-3.4-0.3-4.9-1c-1.5-0.6-2.6-1.5-3.4-2.7c-0.8-1.1-1.2-2.5-1.2-3.9h2.1c0,1.8,0.7,3.2,2,4.2
			c1.3,1,3.1,1.5,5.3,1.5c2,0,3.6-0.4,4.8-1.3C244.8,472.6,245.4,471.5,245.4,470z"/>
		<path class="st0" d="M268.8,464.1H257v10.3h13.6v1.8h-15.8v-25.3h15.7v1.8H257v9.6h11.9V464.1z"/>
		<path class="st0" d="M295.7,468.4c-0.3,2.7-1.2,4.7-2.9,6.1c-1.6,1.4-3.8,2.1-6.5,2.1c-1.9,0-3.5-0.5-5-1.4
			c-1.4-0.9-2.6-2.3-3.3-4c-0.8-1.7-1.2-3.7-1.2-5.9V462c0-2.3,0.4-4.2,1.2-6c0.8-1.7,1.9-3.1,3.4-4c1.5-0.9,3.2-1.4,5.1-1.4
			c2.7,0,4.9,0.7,6.4,2.2c1.6,1.5,2.5,3.5,2.7,6.1h-2.2c-0.5-4.3-2.9-6.5-7-6.5c-2.3,0-4.1,0.9-5.5,2.6c-1.4,1.7-2,4.1-2,7.1v3.1
			c0,2.9,0.7,5.3,2,7c1.3,1.7,3.1,2.6,5.4,2.6c2.2,0,3.9-0.5,5.1-1.6c1.1-1.1,1.8-2.7,2.1-4.8H295.7z"/>
		<path class="st0" d="M321,450.9v17.3c0,1.7-0.4,3.2-1.1,4.5c-0.7,1.3-1.8,2.2-3.1,2.9c-1.4,0.7-2.9,1-4.7,1
			c-2.7,0-4.8-0.7-6.4-2.2c-1.6-1.5-2.4-3.5-2.5-6v-17.5h2.1v17.1c0,2.1,0.6,3.8,1.8,5c1.2,1.2,2.9,1.8,5,1.8c2.1,0,3.7-0.6,5-1.8
			c1.2-1.2,1.8-2.8,1.8-4.9v-17.2H321z"/>
		<path class="st0" d="M339.1,465.7h-7.4v10.6h-2.2v-25.3h8.2c2.7,0,4.8,0.7,6.3,2c1.5,1.3,2.3,3.1,2.3,5.5c0,1.6-0.5,3.1-1.4,4.3
			c-1,1.2-2.2,2.1-3.8,2.6l6.3,10.8v0.2h-2.3L339.1,465.7z M331.8,463.9h6.6c1.8,0,3.2-0.5,4.3-1.5s1.6-2.3,1.6-4
			c0-1.8-0.6-3.2-1.7-4.2c-1.1-1-2.7-1.5-4.8-1.5h-6V463.9z"/>
		<path class="st0" d="M357.6,476.3h-2.1v-25.3h2.1V476.3z"/>
		<path class="st0" d="M383.8,452.7h-8.7v23.5H373v-23.5h-8.7v-1.8h19.5V452.7z"/>
		<path class="st0" d="M398.3,464.7l7.7-13.8h2.5l-9.2,15.8v9.5h-2.1v-9.5l-9.1-15.8h2.5L398.3,464.7z"/>
	</g>
	<g>
		<g>
			<path class="st1" d="M256.7,74.2L256.7,74.2l0.1-38.8v0.2v-0.2c0,0-88.8,53.2-188.7,56.4c0,0-22,82.4-10.6,182.4
				c0.1,0,0.1-0.1,0.2-0.1c0.8,7.3,1.8,15.5,3.1,23.7l0,0c0.7,4.3,1.5,8.8,2,11.6c0,0,0,0,0,0c0.7,3.6,1.4,7.2,2.2,10.6l0.1,0
				c2.4,11.2,5.4,22.6,8.9,33.9h10.2v0h3.4h2.4h21.2h18.6h61.2h29h36.1h0.8l0.3-251.1L256.7,74.2z"/>
		</g>
		<g>
			<path class="st2" d="M445,91.8c-95.8-3.1-181.4-52.4-188.2-56.4v38.8h-0.1l0.1,28.6V354h36.5h22.5v0h86.8v0h21.2v0h13.4v0h1.9
				c3.5-11.3,6.4-22.7,8.9-33.9l0.1,0c3.5-15.2,5.9-33.2,7.4-47.2c0.1,0,0.1,0.1,0.2,0.1C466.8,173.5,445,91.8,445,91.8z"/>
		</g>
		<g>
			<line class="st3" x1="267.2" y1="272.2" x2="267.2" y2="272.2"/>
		</g>
		<g>
			<polygon class="st1" points="255.6,89.5 255.6,89.5 255.5,89.5 			"/>
		</g>
		<g>
			<polygon class="st1" points="255.6,89.5 255.6,89.5 255.5,89.5 			"/>
		</g>
		<g>
			<g>
				<path class="st4" d="M255.6,217.5c-10.9,0-19.8,8.9-19.8,19.8c0,7,3.6,13.1,9.1,16.6v31.5c0,5.9,4.8,10.7,10.7,10.7h0
					c5.9,0,10.7-4.8,10.7-10.7V254c5.5-3.5,9.1-9.7,9.1-16.6C275.4,226.4,266.6,217.5,255.6,217.5z"/>
			</g>
			<g>
				<path class="st4" d="M275.7,125h-40.1c-6.4,0-11.6,5.2-11.6,11.6v49.7h63.3v-49.7C287.3,130.2,282.1,125,275.7,125z"/>
			</g>
			<g>
				<path class="st5" d="M322.9,186.3h-5.1v-49.1c0-24.3-19.9-44.1-44.1-44.1h-36c-24.3,0-44.1,19.9-44.1,44.1v49.1h-5.1
					c-14.2,0-25.8,11.6-25.8,25.8V299c0,14.2,11.6,25.8,25.8,25.8h134.5c14.2,0,25.8-11.6,25.8-25.8v-86.9
					C348.7,197.9,337.1,186.3,322.9,186.3z M266.3,254v31.5c0,5.9-4.8,10.7-10.7,10.7h0c-5.9,0-10.7-4.8-10.7-10.7V254
					c-5.5-3.5-9.1-9.7-9.1-16.6c0-10.9,8.9-19.8,19.8-19.8s19.8,8.9,19.8,19.8C275.4,244.3,271.8,250.5,266.3,254z M224,186.3v-49.7
					c0-6.4,5.2-11.6,11.6-11.6h40.1c6.4,0,11.6,5.2,11.6,11.6v49.7H224z"/>
			</g>
		</g>
		<g>
			<rect x="211.4" y="192.3" class="st5" width="88.4" height="124.5"/>
		</g>
		<g>
			<g>
				<g>
					<circle class="st6" cx="223.3" cy="243.6" r="18.5"/>
				</g>
				<g>
					<polygon class="st6" points="239.4,285.7 207.1,285.7 220,239.8 226.5,239.8 					"/>
				</g>
			</g>
			<g>
				<g>
					<circle class="st6" cx="287.5" cy="243.6" r="18.5"/>
				</g>
				<g>
					<polygon class="st6" points="303.7,285.7 271.3,285.7 284.3,239.8 290.7,239.8 					"/>
				</g>
			</g>
		</g>
	</g>
	<g>
		<g>
			<path class="st4" d="M235.1,405.2c-1.6-1.5-3.3-2.3-5.3-2.3c-2.4,0-4.2,0.9-5.5,2.8c-1.3,1.8-1.9,4.3-1.9,7.3
				c0,2.9,0.6,5.3,1.9,7.2c1.3,1.9,3.1,2.9,5.6,2.9c2,0,3.8-0.8,5.3-2.4c1.5-1.6,2.3-4.2,2.3-7.7
				C237.4,409.3,236.6,406.7,235.1,405.2z"/>
		</g>
	</g>
	<g>
		<g>
			<path class="st4" d="M153.2,420.9c1.4-1.7,2.1-4.4,2.1-8.1c0-3.2-0.7-5.8-2-7.6c-1.4-1.8-3.2-2.7-5.5-2.7c-5,0-7.5,3.6-7.5,10.8
				c0,3,0.6,5.4,1.9,7.3c1.2,1.9,3.1,2.9,5.6,2.9C150,423.4,151.8,422.6,153.2,420.9z"/>
		</g>
	</g>
	<g>
		<g>
			<path class="st0" d="M324.5,423.6l-9.4-3c-3,3-5.9,4.5-8.8,4.5c-2.2,0-4.3-0.7-6.3-2.2c-2-1.4-3.1-3.9-3.3-7.3H325
				c0-4-0.6-7.7-1.8-10.9c-1.2-3.3-3.4-6-6.6-8.2c-3.2-2.2-6.9-3.3-11.3-3.3c-6,0-10.9,2-14.8,5.9c-3.9,3.9-5.8,8.8-5.8,14.7
				c0,5.8,1.9,10.4,5.6,13.9c3.8,3.5,9,5.3,15.7,5.3C314.4,432.9,320.6,429.8,324.5,423.6z M304.7,401.1c2.4,0,4.3,0.7,5.6,2.2
				c1.4,1.5,2.2,3.3,2.5,5.4h-15.9C297.6,403.7,300.2,401.1,304.7,401.1z"/>
		</g>
	</g>
	<g>
		<g>
			<path class="st0" d="M276.4,384.6c1.5,0,2.6,1.4,3.4,4.1l8.8-6.9c-2.5-3.6-6.7-5.3-12.7-5.3c-4.9,0-8.6,1.3-11,4
				c-2.5,2.7-3.7,6-3.7,10v3.5h-5.1v8.8h5.1v20.5h-5.5v8.7h23.6v-8.7h-6v-20.5h6V394h-6v-4.2C273.3,386.4,274.4,384.6,276.4,384.6z"
				/>
		</g>
	</g>
	<g>
		<g>
			<path class="st0" d="M411.7,417.2c-1,1.8-2.4,3.3-4.2,4.4c-1.7,1.1-3.6,1.7-5.5,1.7c-2.4,0-4.5-0.9-6.2-2.6
				c-1.7-1.7-2.5-4.4-2.5-7.9c0-3,0.8-5.3,2.4-7.1c1.6-1.8,3.7-2.6,6.4-2.6c4.2,0,7.3,2.1,9.2,6.4h8.6V394h-8.3v3.1
				c-3.6-2.5-7.4-3.7-11.5-3.7c-5.1,0-9.6,1.7-13.5,5.2c-3.9,3.5-5.8,8.3-5.8,14.3c0,6,2,10.9,5.9,14.5c3.9,3.6,9.2,5.4,15.8,5.4
				c8.8,0,14.9-3.8,18.4-11.5L411.7,417.2z"/>
		</g>
	</g>
	<g>
		<g>
			<path class="st0" d="M464.7,404.6c-1.2-3.3-3.4-6-6.6-8.2c-3.2-2.2-6.9-3.3-11.3-3.3c-6,0-10.9,2-14.8,5.9
				c-3.9,3.9-5.8,8.8-5.8,14.7c0,5.8,1.9,10.4,5.6,13.9c3.8,3.5,9,5.3,15.7,5.3c8.4,0,14.6-3.1,18.5-9.3l-9.4-3
				c-3,3-5.9,4.5-8.8,4.5c-2.2,0-4.3-0.7-6.3-2.2c-2-1.4-3.1-3.9-3.3-7.3h28.3C466.5,411.5,465.9,407.8,464.7,404.6z M438.4,408.8
				c0.7-5.1,3.3-7.7,7.8-7.7c2.4,0,4.3,0.7,5.6,2.2c1.4,1.5,2.2,3.3,2.5,5.4H438.4z"/>
		</g>
	</g>
	<g>
		<g>
			<path class="st0" d="M376.9,432v-8.7h-5.7v-15.1c0-9.8-3.8-14.7-11.5-14.7c-3.8,0-7.5,1.4-11.1,4.1V394h-17.9v8.8h5.8v20.5h-5.8
				v8.7h23.8v-8.7h-5.8v-17.1c2.4-1.6,4.7-2.5,6.9-2.5c1.3,0,2.2,0.4,2.8,1.1c0.6,0.8,0.8,2.2,0.8,4.2v23H376.9z"/>
		</g>
	</g>
	<g>
		<g>
			<polygon class="st7" points="84.9,432.4 93,407.4 101.6,432.4 111.8,432.4 126.9,386.6 132.8,386.6 132.8,377.4 111,377.4 
				111,386.6 116.4,386.6 107.8,412.9 98.9,386.6 103.9,386.6 103.9,377.4 84.3,377.4 84.3,386.6 89.3,386.6 80.9,412.9 72.1,386.6 
				77.7,386.6 77.7,377.4 53.1,377.4 53.1,386.6 58.9,386.6 74.5,432.4 			"/>
		</g>
	</g>
	<g>
		<g>
			<path class="st7" d="M162,427.5c3.8-3.6,5.7-8.4,5.7-14.5c0-6.2-1.9-11-5.8-14.6c-3.8-3.5-8.6-5.3-14.2-5.3
				c-5.6,0-10.3,1.8-14.2,5.3c-3.9,3.5-5.8,8.4-5.8,14.6c0,6.2,1.9,11,5.8,14.6c3.9,3.5,8.6,5.3,14.2,5.3
				C153.5,432.9,158.2,431.1,162,427.5z M142.1,420.6c-1.2-1.9-1.9-4.4-1.9-7.3c0-7.2,2.5-10.8,7.5-10.8c2.3,0,4.2,0.9,5.5,2.7
				c1.4,1.8,2,4.3,2,7.6c0,3.7-0.7,6.4-2.1,8.1c-1.4,1.7-3.2,2.6-5.5,2.6C145.2,423.4,143.3,422.5,142.1,420.6z"/>
		</g>
	</g>
	<g>
		<g>
			<path class="st7" d="M194,410.4c1.3-2.3,2.9-3.8,4.8-4.5c1.9-0.7,4.4-1,7.5-1v-11.5c-0.8,0-1.4,0-2,0c-3.3,0-6.2,1-8.6,3
				c-2.4,2-4,4.4-4.7,7.2V394h-17.7v8.7h6.6v20.5h-7v8.7h26.7v-8.7h-7.6v-4.7C192.1,415.4,192.7,412.7,194,410.4z"/>
		</g>
	</g>
	<g>
		<g>
			<path class="st7" d="M237.3,432h18.4v-8.7h-6.2v-45.8h-18.1v8.8h5.9v12.1c-2.9-3.4-6.5-5.2-10.9-5.2c-4.6,0-8.5,1.9-11.7,5.7
				c-3.2,3.8-4.8,8.5-4.8,14c0,5.5,1.6,10.1,4.7,14c3.1,3.8,7,5.8,11.8,5.8c3.9,0,7.6-1.7,11-5.1V432z M235.1,420.6
				c-1.5,1.6-3.3,2.4-5.3,2.4c-2.4,0-4.3-1-5.6-2.9c-1.3-1.9-1.9-4.3-1.9-7.2c0-3,0.6-5.4,1.9-7.3c1.3-1.8,3.1-2.8,5.5-2.8
				c2,0,3.8,0.8,5.3,2.3c1.6,1.5,2.3,4.1,2.3,7.8C237.4,416.5,236.6,419.1,235.1,420.6z"/>
		</g>
	</g>
	<g>
		<g>
			<path class="st0" d="M470.8,392.4c2.4,0,4.2,1.8,4.2,4.1c0,2.3-1.8,4.1-4.2,4.1c-2.4,0-4.2-1.8-4.2-4.1
				C466.6,394.2,468.5,392.4,470.8,392.4L470.8,392.4z M470.8,393.2c-1.8,0-3.2,1.5-3.2,3.3c0,1.8,1.4,3.3,3.2,3.3
				c1.8,0,3.1-1.5,3.1-3.3C474,394.7,472.6,393.2,470.8,393.2L470.8,393.2z M470.2,398.7h-1v-4.1c0.4-0.1,0.9-0.2,1.6-0.2
				c0.8,0,1.1,0.1,1.4,0.3c0.2,0.2,0.4,0.5,0.4,0.9c0,0.5-0.4,0.8-0.9,1v0.1c0.4,0.1,0.6,0.5,0.8,1c0.1,0.6,0.2,0.9,0.3,1h-1
				c-0.1-0.2-0.2-0.5-0.3-1c-0.1-0.5-0.3-0.7-0.9-0.7h-0.5V398.7z M470.2,396.3h0.5c0.5,0,1-0.2,1-0.6c0-0.4-0.3-0.6-0.9-0.6
				c-0.3,0-0.4,0-0.5,0.1V396.3z"/>
		</g>
	</g>
</g>
</svg>
